# xmcd CD database file
#
# Track frame offsets:
#	150
#	11313
#	25480
#	40514
#	53607
#	62539
#	73573
#	81544
#	90151
#	98190
#	111994
#	127389
#	139301
#	149479
#	158891
#	175581
#	187844
#	199591
#	211421
#	222495
#	236645
#	251976
#	266101
#	278589
#	294988
#	307397
#	319912
#
# Disc length: 4419 seconds
#
# Revision: 0
# Processed by: cddbd v1.5.2PL0 Copyright (c) Steve Scherf et al.
# Submitted via: CDex 1.70beta2
#
DISCID=9911411b
DTITLE=Michael Silverman - Mellow Jazz Cafe: Relaxing Jazz Piano Music
DYEAR=2010
DGENRE=Jazz
TTITLE0=Mellow Jazz Cafe
TTITLE1=Jazz St. Louis
TTITLE2=Latin Jazz Improv
TTITLE3=Love Story (Solo Jazz Piano)
TTITLE4=Piano Meditation (Awakening)
TTITLE5=Inner Strength
TTITLE6=Piano Meditation (Peace Jazz)
TTITLE7=Piano Party Jazz
TTITLE8=Supreme Love
TTITLE9=Take Six
TTITLE10=Mellow Jazz
TTITLE11=The New Jazz
TTITLE12=Tone Poem (For Blues Piano Trio)
TTITLE13=Night Blues
TTITLE14=Brazilian Jazz Fantasy
TTITLE15=Early Morning
TTITLE16=Gymnopedie
TTITLE17=Here's What
TTITLE18=Impressions of Central Park
TTITLE19=It's a Wonderful Life
TTITLE20=Jazz Bossa
TTITLE21=Jazz for a Rainy Day
TTITLE22=Jazz for a Rainy Day Part 2
TTITLE23=Jazz In the Nigh
TTITLE24=Jazz Lullaby
TTITLE25=Coming Home
TTITLE26=Jazz Odyssey
EXTD=YEAR: 2010
EXTT0=
EXTT1=
EXTT2=
EXTT3=
EXTT4=
EXTT5=
EXTT6=
EXTT7=
EXTT8=
EXTT9=
EXTT10=
EXTT11=
EXTT12=
EXTT13=
EXTT14=
EXTT15=
EXTT16=
EXTT17=
EXTT18=
EXTT19=
EXTT20=
EXTT21=
EXTT22=
EXTT23=
EXTT24=
EXTT25=
EXTT26=
PLAYORDER=
